<svg width="115" height="25" viewBox="0 0 115 25" fill="none" xmlns="http://www.w3.org/2000/svg">
<path d="M46.5976 13.6241C47.6424 13.6241 48.6637 13.9339 49.5324 14.5144C50.4011 15.0948 51.0782 15.9198 51.478 16.8851C51.8778 17.8503 51.9824 18.9124 51.7786 19.9371C51.5748 20.9618 51.0717 21.9031 50.3329 22.6418C49.5941 23.3806 48.6529 23.8837 47.6282 24.0875C46.6035 24.2914 45.5414 24.1868 44.5761 23.7869C43.6109 23.3871 42.7859 22.7101 42.2054 21.8414C41.625 20.9727 41.3152 19.9513 41.3152 18.9066C41.3169 17.5061 41.8741 16.1635 42.8643 15.1733C43.8546 14.183 45.1972 13.6259 46.5976 13.6241ZM46.5976 23.0796C47.4226 23.0796 48.2291 22.835 48.915 22.3766C49.601 21.9183 50.1356 21.2669 50.4513 20.5047C50.767 19.7425 50.8497 18.9038 50.6887 18.0947C50.5278 17.2855 50.1305 16.5423 49.5472 15.9589C48.9638 15.3756 48.2206 14.9783 47.4115 14.8173C46.6024 14.6563 45.7637 14.7389 45.0015 15.0546C44.2393 15.3703 43.5878 15.9049 43.1294 16.5909C42.6711 17.2768 42.4264 18.0832 42.4264 18.9082C42.4262 19.4562 42.5339 19.9988 42.7434 20.505C42.9529 21.0113 43.2601 21.4714 43.6475 21.8589C44.0348 22.2464 44.4947 22.5538 45.0009 22.7636C45.5071 22.9733 46.0497 23.0813 46.5976 23.0813V23.0796ZM45.2628 18.9082C45.2627 19.1722 45.341 19.4303 45.4876 19.6499C45.6343 19.8694 45.8428 20.0405 46.0867 20.1416C46.3306 20.2426 46.599 20.2691 46.8579 20.2176C47.1169 20.1661 47.3548 20.039 47.5415 19.8523C47.7282 19.6656 47.8553 19.4278 47.9068 19.1689C47.9583 18.9099 47.9319 18.6415 47.8309 18.3976C47.7299 18.1537 47.5588 17.9452 47.3393 17.7985C47.1197 17.6518 46.8616 17.5735 46.5976 17.5735C46.2436 17.5735 45.9041 17.7141 45.6538 17.9644C45.4035 18.2147 45.2628 18.5542 45.2628 18.9082ZM85.1972 18.9082C85.1972 17.8635 85.507 16.8422 86.0875 15.9735C86.668 15.1048 87.493 14.4278 88.4582 14.028C89.4234 13.6282 90.4856 13.5236 91.5102 13.7274C92.5349 13.9312 93.4762 14.4343 94.2149 15.1731C94.9537 15.9119 95.4568 16.8531 95.6606 17.8778C95.8644 18.9025 95.7598 19.9646 95.36 20.9298C94.9602 21.8951 94.2832 22.7201 93.4145 23.3005C92.5459 23.881 91.5246 24.1908 90.4798 24.1908C89.0793 24.1891 87.7367 23.632 86.7464 22.6417C85.7561 21.6514 85.1989 20.3087 85.1972 18.9082ZM90.4798 23.0796C91.3048 23.0796 92.1112 22.8349 92.7972 22.3766C93.4831 21.9182 94.0177 21.2668 94.3334 20.5046C94.6491 19.7424 94.7317 18.9037 94.5707 18.0946C94.4098 17.2854 94.0125 16.5422 93.4292 15.9589C92.8458 15.3755 92.1026 14.9783 91.2935 14.8173C90.4843 14.6563 89.6456 14.7389 88.8835 15.0546C88.1213 15.3703 87.4698 15.9049 87.0115 16.5909C86.5531 17.2768 86.3084 18.0833 86.3084 18.9082C86.3082 19.4562 86.4159 19.9988 86.6254 20.5051C86.835 21.0114 87.1422 21.4714 87.5296 21.859C87.9169 22.2465 88.3769 22.5539 88.8831 22.7636C89.3893 22.9733 89.9319 23.0813 90.4798 23.0813V23.0796ZM38.5271 19.7976C38.3965 18.6959 38.493 17.5791 38.8108 16.5161C39.1286 15.4531 39.6608 14.4665 40.3746 13.6172C41.0884 12.7678 41.9687 12.0738 42.9611 11.5778C43.9535 11.0819 45.0371 10.7945 46.1448 10.7335C47.2526 10.6725 48.3612 10.8392 49.402 11.2232C50.4429 11.6072 51.3941 12.2004 52.1968 12.9663C52.9995 13.7321 53.6368 14.6543 54.0694 15.676C54.5019 16.6977 54.7205 17.7971 54.7116 18.9066C54.7128 20.1371 54.4326 21.3517 53.8925 22.4573H83.185C82.6262 21.311 82.3453 20.0493 82.365 18.7742C82.3847 17.4992 82.7045 16.2467 83.2984 15.1183C83.8924 13.9899 84.7437 13.0172 85.7836 12.2791C86.8235 11.541 88.0226 11.0582 89.2838 10.8698C90.545 10.6815 91.8328 10.7928 93.043 11.1949C94.2531 11.597 95.3515 12.2785 96.2493 13.1841C97.147 14.0898 97.8187 15.1942 98.2101 16.4078C98.6015 17.6214 98.7015 18.9102 98.5021 20.1697C102.355 18.5511 104.842 15.9031 104.842 11.7152C104.842 7.37703 91.778 1.27538 83.4686 0.988281V6.1157C83.4686 7.10607 83.0752 8.05588 82.3749 8.75618C81.6746 9.45648 80.7248 9.8499 79.7344 9.8499H72.5883C71.7058 9.84857 70.8525 9.53405 70.1802 8.96235C69.5079 8.39065 69.0605 7.59889 68.9174 6.72809C68.9174 6.72809 69.161 3.46943 69.942 2.89042L69.4296 2.50843L65.749 6.7314H51.5966C41.9725 6.72809 34.1588 10.2535 34.1588 14.5917C34.1588 16.594 35.8091 18.411 38.5271 19.7976ZM89.1449 18.9066C89.1449 19.1706 89.2232 19.4287 89.3699 19.6482C89.5166 19.8677 89.7251 20.0388 89.969 20.1398C90.2129 20.2409 90.4813 20.2673 90.7402 20.2158C90.9992 20.1643 91.237 20.0372 91.4237 19.8505C91.6104 19.6638 91.7375 19.4259 91.789 19.167C91.8405 18.9081 91.8141 18.6397 91.7131 18.3957C91.612 18.1518 91.4409 17.9433 91.2214 17.7967C91.0019 17.65 90.7438 17.5717 90.4798 17.5717C90.3044 17.5717 90.1306 17.6063 89.9686 17.6735C89.8065 17.7407 89.6593 17.8391 89.5353 17.9633C89.4113 18.0874 89.3131 18.2347 89.2461 18.3969C89.1791 18.559 89.1447 18.7328 89.1449 18.9082V18.9066Z" fill="white"/>
<path d="M1.00065 12.0896L0.52865 12.5616L0.0579834 12.0896L0.52865 11.6176L1.00065 12.0896ZM1.47265 11.6176L6.80598 16.951L5.86198 17.895L0.52865 12.5616L1.47265 11.6176ZM0.52865 11.6176L5.86198 6.2843L6.80598 7.2283L1.47265 12.5616L0.52865 11.6176ZM1.00065 11.423H17.6673V12.7563H1.00065V11.423Z" fill="white"/>
</svg>
