<svg width="25" height="26" viewBox="0 0 25 26" fill="none" xmlns="http://www.w3.org/2000/svg">
<path d="M24.9762 17.2771C24.8461 17.1469 24.6591 17.0085 24.4152 16.8621C24.399 16.8458 24.3421 16.8132 24.2445 16.7644C24.0657 16.6667 23.8868 16.5772 23.7079 16.4958C23.6104 16.447 23.5453 16.4226 23.5128 16.4226C23.0087 16.211 22.4559 16.0401 21.8543 15.9099V12.6628C23.0413 12.8256 24.0819 13.322 24.9762 14.1521V17.2771ZM20.0006 12.5896C19.6266 12.5896 19.2039 12.614 18.7323 12.6628V9.53784C19.2039 9.48901 19.6266 9.4646 20.0006 9.4646C20.8136 9.4646 21.4315 9.48901 21.8543 9.53784V12.6628C21.4478 12.614 20.8299 12.5896 20.0006 12.5896ZM18.7323 6.41284V3.28784C19.2039 3.23901 19.6266 3.2146 20.0006 3.2146C20.8299 3.2146 21.4478 3.23901 21.8543 3.28784V6.41284C21.4478 6.36401 20.8299 6.3396 20.0006 6.3396C19.6266 6.3396 19.2039 6.36401 18.7323 6.41284ZM12.4884 8.34155V5.21655C14.0331 4.58179 15.0738 4.17489 15.6104 3.99585V7.12085C15.1063 7.28361 14.0656 7.69051 12.4884 8.34155ZM8.17134 9.4646C7.55346 9.4646 6.91118 9.3995 6.24451 9.26929V6.14429C6.91118 6.2745 7.55346 6.3396 8.17134 6.3396C8.52907 6.3396 8.92744 6.29891 9.36646 6.21753V9.34253C8.92744 9.42391 8.52907 9.4646 8.17134 9.4646ZM3.12256 7.9021C3.82175 8.53687 4.8624 8.99259 6.24451 9.26929V12.3943C4.84614 12.1176 3.80549 11.6619 3.12256 11.0271V14.1521C3.82175 14.7869 4.8624 15.2426 6.24451 15.5193V18.7664C6.01687 18.7338 5.7811 18.685 5.5372 18.6199C5.50468 18.6199 5.46402 18.6117 5.41524 18.5955C5.36646 18.5792 5.34207 18.5629 5.34207 18.5466C5.16321 18.4978 4.99248 18.4408 4.82988 18.3757C4.73232 18.3432 4.65102 18.3106 4.58598 18.2781C4.42337 18.1967 4.25264 18.099 4.07378 17.9851C3.9437 17.9037 3.87053 17.863 3.85427 17.863C3.57785 17.6677 3.33394 17.4724 3.12256 17.2771V23.5271C3.12256 23.9503 2.96809 24.3165 2.65915 24.6257C2.3502 24.935 1.98029 25.0896 1.54939 25.0896C1.1185 25.0896 0.752643 24.935 0.45183 24.6257C0.151017 24.3165 0.000610352 23.9503 0.000610352 23.5271V1.6521C0.000610352 1.21265 0.151017 0.842367 0.45183 0.54126C0.752643 0.240153 1.1185 0.0895996 1.54939 0.0895996C1.98029 0.0895996 2.3502 0.240153 2.65915 0.54126C2.96809 0.842367 3.12256 1.21265 3.12256 1.6521C3.2689 1.79858 3.46402 1.94507 3.70793 2.09155C3.72419 2.09155 3.74451 2.09969 3.7689 2.11597L3.84207 2.16479L3.90305 2.18921C4.06565 2.28687 4.23638 2.37638 4.41524 2.45776C4.49655 2.49032 4.56159 2.52287 4.61037 2.55542C4.85427 2.6368 5.08191 2.71004 5.29329 2.77515L5.36646 2.79956C5.64289 2.88094 5.93557 2.95418 6.24451 3.01929V6.14429C4.8624 5.86759 3.82175 5.41187 3.12256 4.7771V7.9021ZM8.17134 12.5896C8.52907 12.5896 8.92744 12.5489 9.36646 12.4675V15.5925C8.92744 15.6739 8.52907 15.7146 8.17134 15.7146C7.55346 15.7146 6.91118 15.6495 6.24451 15.5193V12.3943C6.91118 12.5245 7.55346 12.5896 8.17134 12.5896ZM15.6104 10.2458V13.3708C15.09 13.5499 14.0494 13.9568 12.4884 14.5916V11.4666C14.0331 10.8318 15.0738 10.4249 15.6104 10.2458ZM15.6104 7.12085C16.6998 6.76278 17.7404 6.52677 18.7323 6.41284V9.53784C17.7404 9.65177 16.6998 9.88778 15.6104 10.2458V7.12085ZM9.36646 12.4675V9.34253C10.147 9.21232 11.1876 8.87866 12.4884 8.34155V11.4666C11.1876 12.0037 10.147 12.3373 9.36646 12.4675ZM18.7323 15.7878C17.7242 15.8855 16.6835 16.1134 15.6104 16.4714V13.3708C16.6998 13.0128 17.7404 12.7768 18.7323 12.6628V15.7878ZM12.4884 17.6921C12.2445 17.7898 12.0169 17.8793 11.8055 17.9607C11.7567 17.977 11.6998 18.0014 11.6348 18.0339C11.4559 18.099 11.2526 18.1723 11.025 18.2537L10.8787 18.3025C10.6022 18.4001 10.3583 18.4734 10.147 18.5222C9.87053 18.6036 9.61037 18.6687 9.36646 18.7175V15.5925C10.147 15.4623 11.1876 15.1287 12.4884 14.5916V17.6921ZM9.36646 3.09253C10.0169 2.9786 10.7892 2.75073 11.6835 2.40894L11.7079 2.39673L11.7567 2.38452C12.0169 2.28687 12.2608 2.18921 12.4884 2.09155V5.21655C11.1876 5.75366 10.147 6.08732 9.36646 6.21753V3.09253ZM15.6104 0.87085C16.6998 0.512777 17.7404 0.276774 18.7323 0.162842V3.28784C17.7404 3.40177 16.6998 3.63778 15.6104 3.99585V0.87085ZM22.5616 0.309326C22.5941 0.309326 22.6307 0.317464 22.6713 0.33374C22.712 0.350016 22.7404 0.358154 22.7567 0.358154C22.9356 0.406982 23.1144 0.472087 23.2933 0.553467C23.3583 0.586019 23.4315 0.618571 23.5128 0.651123C23.6754 0.732503 23.8461 0.830159 24.025 0.944092C24.1551 1.02547 24.2283 1.06616 24.2445 1.06616C24.5209 1.26147 24.7648 1.45679 24.9762 1.6521V4.7771C24.0819 3.94702 23.0413 3.4506 21.8543 3.28784V0.162842C22.0819 0.195394 22.3177 0.244222 22.5616 0.309326ZM24.9762 7.9021V11.0271C24.0819 10.197 23.0413 9.7006 21.8543 9.53784V6.41284C23.0413 6.5756 24.0819 7.07202 24.9762 7.9021Z" fill="white"/>
</svg>
