<svg width="317" height="358" viewBox="0 0 317 358" fill="none" xmlns="http://www.w3.org/2000/svg">
<path d="M133.068 204.007C133.068 197.749 135.871 194.729 138.964 187.517C139.753 185.676 145.577 166.503 145.577 166.503H172.544C172.544 166.503 177.225 184.831 178.113 186.323C181.835 192.602 185.053 197.176 185.053 204.007C185.053 218.364 173.415 230 159.06 230C144.704 230 133.068 218.362 133.068 204.007Z" stroke="white" stroke-width="3.1411" stroke-miterlimit="10" stroke-linecap="round" stroke-linejoin="round"/>
<path d="M159.06 167.147V185.899V167.147Z" fill="white"/>
<path d="M159.06 167.147V185.899" stroke="white" stroke-width="3.1411" stroke-miterlimit="10" stroke-linecap="round" stroke-linejoin="round"/>
<path d="M149.684 185.899H168.437H149.684Z" fill="white"/>
<path d="M149.684 185.899H168.437" stroke="white" stroke-width="3.1411" stroke-miterlimit="10" stroke-linecap="round" stroke-linejoin="round"/>
<path d="M146.245 148.975C146.245 143.887 151.979 139.761 159.053 139.761C166.126 139.761 171.86 143.887 171.86 148.975H146.245Z" fill="white" stroke="white" stroke-width="2.66365" stroke-miterlimit="10" stroke-linecap="round" stroke-linejoin="round"/>
<path d="M175.51 2.29889C175.51 7.38747 165.48 8.0002 158.406 8.0002C151.333 8.0002 143.203 7.38759 143.203 2.299L175.51 2.29889Z" fill="white" stroke="white" stroke-width="2.66365" stroke-miterlimit="10" stroke-linecap="round" stroke-linejoin="round"/>
<path d="M171.64 154.959L146.48 160.409L171.64 154.959Z" fill="white"/>
<path d="M171.64 154.959L146.48 160.409" stroke="white" stroke-width="3.08613" stroke-miterlimit="10" stroke-linecap="round" stroke-linejoin="round"/>
<path d="M155.605 153.247L146.527 155.101L155.605 153.247Z" fill="white"/>
<path d="M155.605 153.247L146.527 155.101" stroke="white" stroke-width="3.1411" stroke-miterlimit="10" stroke-linecap="round" stroke-linejoin="round"/>
<path d="M171.593 160.268L162.516 162.121L171.593 160.268Z" fill="white"/>
<path d="M171.593 160.268L162.516 162.121" stroke="white" stroke-width="3.1411" stroke-miterlimit="10" stroke-linecap="round" stroke-linejoin="round"/>
<g filter="url(#filter0_dd_13_241)">
<circle cx="158.406" cy="199.56" r="30.4064" fill="#D9D9D9" fill-opacity="0.01"/>
</g>
<path d="M158.913 138.763L158.913 8.00007" stroke="#FFFCFC" stroke-width="1.01355"/>
<defs>
<filter id="filter0_dd_13_241" x="0.29332" y="41.447" width="316.226" height="316.226" filterUnits="userSpaceOnUse" color-interpolation-filters="sRGB">
<feFlood flood-opacity="0" result="BackgroundImageFix"/>
<feColorMatrix in="SourceAlpha" type="matrix" values="0 0 0 0 0 0 0 0 0 0 0 0 0 0 0 0 0 0 127 0" result="hardAlpha"/>
<feOffset/>
<feGaussianBlur stdDeviation="9.12191"/>
<feColorMatrix type="matrix" values="0 0 0 0 1 0 0 0 0 1 0 0 0 0 1 0 0 0 1 0"/>
<feBlend mode="normal" in2="BackgroundImageFix" result="effect1_dropShadow_13_241"/>
<feColorMatrix in="SourceAlpha" type="matrix" values="0 0 0 0 0 0 0 0 0 0 0 0 0 0 0 0 0 0 127 0" result="hardAlpha"/>
<feOffset/>
<feGaussianBlur stdDeviation="63.8534"/>
<feColorMatrix type="matrix" values="0 0 0 0 1 0 0 0 0 1 0 0 0 0 1 0 0 0 1 0"/>
<feBlend mode="normal" in2="effect1_dropShadow_13_241" result="effect2_dropShadow_13_241"/>
<feBlend mode="normal" in="SourceGraphic" in2="effect2_dropShadow_13_241" result="shape"/>
</filter>
</defs>
</svg>
